<?xml version="1.0" encoding="utf-8"?>
<!-- Generator: Adobe Illustrator 26.5.0, SVG Export Plug-In . SVG Version: 6.00 Build 0)  -->
<svg version="1.1" id="Layer_1" xmlns="http://www.w3.org/2000/svg" xmlns:xlink="http://www.w3.org/1999/xlink" x="0px" y="0px"
	 viewBox="0 0 841.9 595.3" style="enable-background:new 0 0 841.9 595.3;" xml:space="preserve">
<g>
	<g>
		<path d="M337.8,320.7v-37.3h13.8c3,0,5.5,0.5,7.4,1.5c2,1,3.4,2.4,4.4,4.1c1,1.7,1.4,3.7,1.4,5.9c0,2.1-0.5,4-1.4,5.7
			c-0.9,1.7-2.4,3.1-4.3,4.2c-2,1-4.5,1.6-7.5,1.6h-7v14.4H337.8z M344.7,300.7h6.6c2.4,0,4.1-0.5,5.1-1.6c1-1,1.6-2.5,1.6-4.3
			c0-1.8-0.5-3.3-1.6-4.3c-1-1-2.8-1.6-5.1-1.6h-6.6V300.7z"/>
		<path d="M376.2,321.4c-2.3,0-4.1-0.4-5.6-1.1c-1.5-0.7-2.5-1.7-3.3-2.9c-0.7-1.2-1.1-2.5-1.1-4c0-2.5,1-4.4,2.9-6
			c1.9-1.5,4.8-2.3,8.6-2.3h6.7v-0.6c0-1.8-0.5-3.1-1.5-4c-1-0.9-2.3-1.3-3.8-1.3c-1.4,0-2.6,0.3-3.6,1c-1,0.7-1.7,1.6-1.9,2.9h-6.7
			c0.2-1.9,0.8-3.6,1.9-5c1.1-1.4,2.6-2.5,4.3-3.3c1.8-0.8,3.8-1.1,6-1.1c3.8,0,6.7,0.9,8.9,2.8c2.2,1.9,3.3,4.5,3.3,8v16.3h-5.8
			l-0.6-4.3c-0.8,1.4-1.9,2.6-3.3,3.5C380.2,320.9,378.4,321.4,376.2,321.4z M377.7,316c2,0,3.5-0.6,4.6-1.9
			c1.1-1.3,1.8-2.9,2.1-4.7h-5.8c-1.8,0-3.1,0.3-3.9,1c-0.8,0.7-1.2,1.5-1.2,2.4c0,1,0.4,1.8,1.2,2.4
			C375.4,315.7,376.4,316,377.7,316z"/>
		<path d="M401.4,320.7l-7.7-26.4h6.8l4.6,19l5.3-19h7.6l5.3,19l4.6-19h6.8l-7.8,26.4h-7.1l-5.6-19.8l-5.6,19.8H401.4z"/>
		<path d="M437.6,320.7v-26.4h6l0.5,4.5c0.8-1.6,2-2.8,3.5-3.7c1.5-0.9,3.4-1.4,5.5-1.4c3.3,0,5.8,1,7.6,3.1
			c1.8,2.1,2.7,5.1,2.7,9.1v14.9h-6.8v-14.3c0-2.3-0.5-4-1.4-5.2c-0.9-1.2-2.4-1.8-4.3-1.8c-1.9,0-3.5,0.7-4.7,2
			c-1.2,1.4-1.8,3.2-1.8,5.6v13.6H437.6z"/>
		<path d="M479.6,321.4c-2.3,0-4.4-0.4-6.2-1.1c-1.8-0.8-3.2-1.8-4.3-3.2c-1.1-1.3-1.7-2.9-1.9-4.7h6.9c0.2,1,0.8,1.9,1.7,2.6
			c0.9,0.7,2.2,1.1,3.7,1.1c1.5,0,2.6-0.3,3.3-0.9c0.7-0.6,1-1.3,1-2.1c0-1.1-0.5-1.9-1.5-2.3c-1-0.4-2.4-0.8-4.2-1.2
			c-1.1-0.2-2.3-0.6-3.5-0.9c-1.2-0.4-2.2-0.8-3.2-1.4c-1-0.6-1.8-1.3-2.4-2.1c-0.6-0.9-0.9-1.9-0.9-3.2c0-2.3,0.9-4.3,2.8-5.9
			c1.9-1.6,4.5-2.4,7.9-2.4c3.1,0,5.6,0.7,7.5,2.2c1.9,1.5,3,3.5,3.3,6h-6.4c-0.4-2-1.9-2.9-4.4-2.9c-1.3,0-2.3,0.2-3,0.7
			c-0.7,0.5-1,1.1-1,1.9c0,0.8,0.5,1.4,1.5,1.9c1,0.5,2.4,0.9,4.1,1.3c1.8,0.4,3.5,0.9,5.1,1.4c1.5,0.5,2.8,1.3,3.7,2.3
			c0.9,1,1.4,2.5,1.4,4.3c0,1.6-0.4,3.1-1.3,4.4c-0.9,1.3-2.2,2.3-3.8,3.1C483.9,321,481.9,321.4,479.6,321.4z"/>
		<path d="M498.3,321.1c-1.2,0-2.3-0.4-3.1-1.2c-0.8-0.8-1.2-1.7-1.2-2.8c0-1.1,0.4-2.1,1.2-2.9c0.8-0.8,1.8-1.2,3.1-1.2
			s2.3,0.4,3.1,1.2c0.8,0.8,1.2,1.7,1.2,2.9c0,1.1-0.4,2-1.2,2.8C500.5,320.7,499.5,321.1,498.3,321.1z"/>
		<path d="M515.9,321.4c-2.3,0-4.1-0.4-5.6-1.1c-1.5-0.7-2.5-1.7-3.3-2.9c-0.7-1.2-1.1-2.5-1.1-4c0-2.5,1-4.4,2.9-6
			c1.9-1.5,4.8-2.3,8.6-2.3h6.7v-0.6c0-1.8-0.5-3.1-1.5-4c-1-0.9-2.3-1.3-3.8-1.3c-1.4,0-2.6,0.3-3.6,1c-1,0.7-1.7,1.6-1.9,2.9h-6.7
			c0.2-1.9,0.8-3.6,1.9-5c1.1-1.4,2.6-2.5,4.3-3.3c1.8-0.8,3.8-1.1,6-1.1c3.8,0,6.7,0.9,8.9,2.8c2.2,1.9,3.3,4.5,3.3,8v16.3h-5.8
			l-0.6-4.3c-0.8,1.4-1.9,2.6-3.3,3.5C519.9,320.9,518.1,321.4,515.9,321.4z M517.5,316c2,0,3.5-0.6,4.6-1.9
			c1.1-1.3,1.8-2.9,2.1-4.7h-5.8c-1.8,0-3.1,0.3-3.9,1c-0.8,0.7-1.2,1.5-1.2,2.4c0,1,0.4,1.8,1.2,2.4
			C515.1,315.7,516.2,316,517.5,316z"/>
		<path d="M536.2,332.4v-38.2h6.1l0.7,3.8c0.9-1.2,2-2.2,3.4-3.1c1.4-0.9,3.2-1.3,5.5-1.3c2.5,0,4.7,0.6,6.7,1.8
			c2,1.2,3.5,2.9,4.6,5c1.1,2.1,1.7,4.5,1.7,7.1c0,2.7-0.6,5-1.7,7.1c-1.1,2.1-2.7,3.7-4.6,4.9c-2,1.2-4.2,1.8-6.7,1.8
			c-2,0-3.7-0.4-5.2-1.1c-1.5-0.7-2.7-1.8-3.6-3.1v15.4H536.2z M550.5,315.4c2.2,0,4-0.7,5.4-2.2c1.4-1.5,2.1-3.3,2.1-5.6
			c0-2.3-0.7-4.2-2.1-5.7c-1.4-1.5-3.2-2.2-5.4-2.2c-2.2,0-4,0.7-5.4,2.2c-1.4,1.5-2.1,3.4-2.1,5.7c0,2.3,0.7,4.2,2.1,5.7
			C546.4,314.6,548.2,315.4,550.5,315.4z"/>
		<path d="M569.6,332.4v-38.2h6.1l0.7,3.8c0.9-1.2,2-2.2,3.4-3.1c1.4-0.9,3.2-1.3,5.5-1.3c2.5,0,4.7,0.6,6.7,1.8
			c2,1.2,3.5,2.9,4.6,5c1.1,2.1,1.7,4.5,1.7,7.1c0,2.7-0.6,5-1.7,7.1c-1.1,2.1-2.7,3.7-4.6,4.9c-2,1.2-4.2,1.8-6.7,1.8
			c-2,0-3.7-0.4-5.2-1.1c-1.5-0.7-2.7-1.8-3.6-3.1v15.4H569.6z M583.9,315.4c2.2,0,4-0.7,5.4-2.2c1.4-1.5,2.1-3.3,2.1-5.6
			c0-2.3-0.7-4.2-2.1-5.7c-1.4-1.5-3.2-2.2-5.4-2.2c-2.2,0-4,0.7-5.4,2.2c-1.4,1.5-2.1,3.4-2.1,5.7c0,2.3,0.7,4.2,2.1,5.7
			C579.9,314.6,581.7,315.4,583.9,315.4z"/>
	</g>
	<g>
		<path d="M293,299.2c0-5.6-2.8-9.1-7.3-11v-4c0-0.8-0.7-1.5-1.5-1.5h-0.1c-0.8,0-1.5,0.7-1.5,1.5v3c-1-0.2-2-0.4-3.1-0.5v-2.5
			c0-0.8-0.7-1.5-1.5-1.5h-0.1c-0.8,0-1.5,0.7-1.5,1.5v2.3c-0.1,0-0.3,0-0.4,0h-13.3c-0.8,0-1.3,0.4-1.3,1v0.2
			c0,1.5,2.1,2.2,2.1,4.6v26.3c0,2.5-2.1,3.1-2.1,4.6v0.2c0,0.6,0.5,1,1.3,1h11.8c0.7,0,1.3-0.4,1.3-1v-0.2c0-1.5-2.4-2.1-2.4-4.6
			v-6.2h3.1v2.3c0,0.8,0.7,1.5,1.5,1.5h0.1c0.8,0,1.5-0.7,1.5-1.5v-2.4c1.1-0.1,2.1-0.2,3.1-0.5v2.9c0,0.8,0.7,1.5,1.5,1.5h0.1
			c0.8,0,1.5-0.7,1.5-1.5v-3.9C290.3,308.7,293,304.6,293,299.2z M277.7,308.7h-2c-1.8,0-2.5-0.9-2.5-2.6v-13.4
			c0-1.6,0.7-2.6,1.9-2.6h0.7c3.3,0,7,4.2,7,11.2C283,305.3,281.3,308.7,277.7,308.7z"/>
		<path d="M308.6,271.5H280V259c0-1-0.5-1.9-1.3-2.4c-0.8-0.5-1.8-0.6-2.7-0.1c0,0-31,15-31.4,15.3c-0.7,0.4-1.6,1.2-1.6,2.5
			c0,1.7,0,62.4,0,62.4c0,1.5,1.3,2.8,2.8,2.8h62.8c1.5,0,2.8-1.3,2.8-2.8v-62.4C311.4,272.7,310.2,271.5,308.6,271.5z M305.8,333.9
			h-57.3v-56.9h28.6h28.6V333.9z"/>
	</g>
</g>
</svg>
